<!-- Don't forget to upload at 48px. (export directly from Figma) -->
<svg xmlns="http://www.w3.org/2000/svg">
    <symbol id="arrow">
        <path d="M17.5348 35.4701C17.1993 35.1169 17.0315 34.7063 17.0315 34.2383C17.0315 33.7712 17.1993 33.361 17.5348 33.0078L26.627 24L17.5034 14.961C17.1678 14.6286 17 14.2234 17 13.7455C17 13.2675 17.1783 12.8519 17.5348 12.4987C17.8704 12.1662 18.2794 12 18.7618 12C19.2442 12 19.6637 12.1662 20.0202 12.4987L30.591 23.0026C30.7378 23.1481 30.8427 23.3039 30.9056 23.4701C30.9685 23.6364 31 23.813 31 24C31 24.187 30.9685 24.3636 30.9056 24.5299C30.8427 24.6961 30.7378 24.8519 30.591 24.9974L19.9888 35.5013C19.6532 35.8338 19.2492 36 18.7769 36C18.3054 36 17.8914 35.8234 17.5348 35.4701Z"/>
    </symbol>
    <symbol id="email">
        <path d="M24 4.21094C12.96 4.21094 4 13.1709 4 24.2109C4 35.2509 12.96 44.2109 24 44.2109H34V40.2109H24C15.32 40.2109 8 32.8909 8 24.2109C8 15.5309 15.32 8.21094 24 8.21094C32.68 8.21094 40 15.5309 40 24.2109V27.0709C40 28.6509 38.58 30.2109 37 30.2109C35.42 30.2109 34 28.6509 34 27.0709V24.2109C34 18.6909 29.52 14.2109 24 14.2109C18.48 14.2109 14 18.6909 14 24.2109C14 29.7309 18.48 34.2109 24 34.2109C26.76 34.2109 29.28 33.0909 31.08 31.2709C32.38 33.0509 34.62 34.2109 37 34.2109C40.94 34.2109 44 31.0109 44 27.0709V24.2109C44 13.1709 35.04 4.21094 24 4.21094ZM24 30.2109C20.68 30.2109 18 27.5309 18 24.2109C18 20.8909 20.68 18.2109 24 18.2109C27.32 18.2109 30 20.8909 30 24.2109C30 27.5309 27.32 30.2109 24 30.2109Z"/>
    </symbol>
    <symbol id="facebook">
        <path d="M44 24.311C44 13.271 35.04 4.31104 24 4.31104C12.96 4.31104 4 13.271 4 24.311C4 33.991 10.88 42.051 20 43.911V30.311H16V24.311H20V19.311C20 15.451 23.14 12.311 27 12.311H32V18.311H28C26.9 18.311 26 19.211 26 20.311V24.311H32V30.311H26V44.211C36.1 43.211 44 34.691 44 24.311Z"/>
    </symbol>
    <symbol id="instagram">
        <path d="M16 6.31104C10.486 6.31104 6 10.797 6 16.311V32.311C6 37.825 10.486 42.311 16 42.311H32C37.514 42.311 42 37.825 42 32.311V16.311C42 10.797 37.514 6.31104 32 6.31104H16ZM16 10.311H32C35.308 10.311 38 13.003 38 16.311V32.311C38 35.619 35.308 38.311 32 38.311H16C12.692 38.311 10 35.619 10 32.311V16.311C10 13.003 12.692 10.311 16 10.311ZM34 12.311C33.4696 12.311 32.9609 12.5217 32.5858 12.8968C32.2107 13.2719 32 13.7806 32 14.311C32 14.8415 32.2107 15.3502 32.5858 15.7252C32.9609 16.1003 33.4696 16.311 34 16.311C34.5304 16.311 35.0391 16.1003 35.4142 15.7252C35.7893 15.3502 36 14.8415 36 14.311C36 13.7806 35.7893 13.2719 35.4142 12.8968C35.0391 12.5217 34.5304 12.311 34 12.311ZM24 14.311C18.486 14.311 14 18.797 14 24.311C14 29.825 18.486 34.311 24 34.311C29.514 34.311 34 29.825 34 24.311C34 18.797 29.514 14.311 24 14.311ZM24 18.311C27.308 18.311 30 21.003 30 24.311C30 27.619 27.308 30.311 24 30.311C20.692 30.311 18 27.619 18 24.311C18 21.003 20.692 18.311 24 18.311Z"/>
    </symbol>
    <symbol id="map">
        <path d="M47.2047 0.557861L46.7781 0.637861L32.5381 6.15786L16.5381 0.557861L1.49809 5.62453C0.938086 5.8112 0.538086 6.29119 0.538086 6.90453L0.538086 47.2245C0.538086 47.9712 1.12475 48.5579 1.87142 48.5579L2.29809 48.4779L16.5381 42.9579L32.5381 48.5579L47.5781 43.4912C48.1381 43.3045 48.5381 42.8245 48.5381 42.2112V1.89119C48.5381 1.14453 47.9514 0.557861 47.2047 0.557861ZM19.2048 7.14453L29.8714 10.8779L29.8714 41.9712L19.2048 38.2379L19.2048 7.14453ZM5.87142 9.78453L13.8714 7.09119L13.8714 38.2912L5.87142 41.3845L5.87142 9.78453ZM43.2048 39.3312L35.2048 42.0245V10.8512L43.2048 7.75786V39.3312Z"/>
    </symbol>
    <symbol id="pin">
        <path d="M24 4.22021C16.26 4.22021 10 10.4802 10 18.2202C10 21.7002 11 24.9602 12.82 27.9002C14.72 30.9802 17.22 33.6202 19.14 36.7002C20.08 38.2002 20.76 39.6002 21.48 41.2202C22 42.3202 22.42 44.2202 24 44.2202C25.58 44.2202 26 42.3202 26.5 41.2202C27.24 39.6002 27.9 38.2002 28.84 36.7002C30.76 33.6402 33.26 31.0002 35.16 27.9002C37 24.9602 38 21.7002 38 18.2202C38 10.4802 31.74 4.22021 24 4.22021ZM24 23.7202C21.24 23.7202 19 21.4802 19 18.7202C19 15.9602 21.24 13.7202 24 13.7202C26.76 13.7202 29 15.9602 29 18.7202C29 21.4802 26.76 23.7202 24 23.7202Z"/>
    </symbol>
</svg>